{"title":"Hanare Goze Orin AKA Ballad of Orin (Masahiro Shinoda, 1971)","uid":8954329,"size":1464634205,"categoryP":"video","categoryS":"movies","magnet":"?xt=urn:btih:6912cc10b19f2c1cfa9fe5fdf24a404cf87fd421&amp;dn=Hanare+Goze+Orin+AKA+Ballad+of+Orin+%28Masahiro+Shinoda%2C+1971%29&amp;tr=udp%3A%2F%2Ftracker.openbittorrent.com%3A80&amp;tr=udp%3A%2F%2Fopen.demonii.com%3A1337&amp;tr=udp%3A%2F%2Ftracker.coppersurfer.tk%3A6969&amp;tr=udp%3A%2F%2Fexodus.desync.com%3A6969","seeders":1,"leechers":0,"uploader":"tonioferah","files":4,"time":1379968822,"description":"The story follows Orin, a blind woman who as a young girl became a goze, or itinerant entertainer; one of the few options available for a blind woman in Japan at the time (one of the others, far less appealing, was a prostitute). \n\nOrin's life is largely miserable, and the story makes it clear that her misery is a result of traditionalist attitudes, which keep her bound by religion, sexual mores, and a paternal oppressiveness that grants few rights to women.\n\nThe film is a potent depiction in which women are fiercely punished for society's view of them rather than for any crimes they actually committed. \n\nOrin forever remains locked in this paradox, fully believing in her own imagined sins and crimes, never grasping that her society is punishing her merely for the twin &quot;crimes&quot; of being a woman and crippled.\n\n________________________________________\n\n\nGeneral\nComplete name : Ballad of Orin CD1.avi\nFormat : AVI\nFormat/Info : Audio Video Interleave\nFile size : 697 MiB\nDuration : 56mn 59s\nOverall bit rate mode : Variable\nOverall bit rate : 1 709 Kbps\nWriting application : VirtualDubMod 1.5.10.2 (build 2540/release)\nWriting library : VirtualDubMod build 2540/release\n\nVideo\nID : 0\nFormat : MPEG-4 Visual\nFormat profile : Advanced Simple@L5\nFormat settings, BVOP : 2\nFormat settings, QPel : No\nFormat settings, GMC : No warppoints\nFormat settings, Matrix : Default (MPEG)\nMuxing mode : Packed bitstream\nCodec ID : XVID\nCodec ID/Hint : XviD\nDuration : 56mn 59s\nBit rate : 1 606 Kbps\nWidth : 512 pixels\nHeight : 384 pixels\nDisplay aspect ratio : 4:3\nFrame rate : 23.976 fps\nColor space : YUV\nChroma subsampling : 4:2:0\nBit depth : 8 bits\nScan type : Progressive\nCompression mode : Lossy\nBits/(Pixel*Frame) : 0.341\nStream size : 654 MiB (94%)\nWriting library : XviD 1.0.3 (UTC 2004-12-20)\n\nAudio\nID : 1\nFormat : MPEG Audio\nFormat version : Version 1\nFormat profile : Layer 3\nCodec ID : 55\nCodec ID/Hint : MP3\nDuration : 56mn 59s\nBit rate mode : Variable\nBit rate : 90.5 Kbps\nMinimum bit rate : 48.0 Kbps\nChannel(s) : 1 channel\nSampling rate : 48.0 KHz\nCompression mode : Lossy\nStream size : 37.0 MiB (5%)\nAlignment : Aligned on interleaves\nInterleave, duration : 24 ms (0.58 video frame)\nInterleave, preload duration : 207 ms\nWriting library : LAME3.95\nEncoding settings : -m m -V 3 -q 3 -lowpass 18 --vbr-new -b 48\n\n\n\n\nGeneral\nComplete name : Ballad of Orin CD2.avi\nFormat : AVI\nFormat/Info : Audio Video Interleave\nFile size : 700 MiB\nDuration : 1h 1mn\nOverall bit rate mode : Variable\nOverall bit rate : 1 599 Kbps\nWriting application : VirtualDubMod 1.5.10.2 (build 2540/release)\nWriting library : VirtualDubMod build 2540/release\n\nVideo\nID : 0\nFormat : MPEG-4 Visual\nFormat profile : Advanced Simple@L5\nFormat settings, BVOP : 2\nFormat settings, QPel : No\nFormat settings, GMC : No warppoints\nFormat settings, Matrix : Default (MPEG)\nMuxing mode : Packed bitstream\nCodec ID : XVID\nCodec ID/Hint : XviD\nDuration : 1h 1mn\nBit rate : 1 496 Kbps\nWidth : 512 pixels\nHeight : 384 pixels\nDisplay aspect ratio : 4:3\nFrame rate : 23.976 fps\nColor space : YUV\nChroma subsampling : 4:2:0\nBit depth : 8 bits\nScan type : Progressive\nCompression mode : Lossy\nBits/(Pixel*Frame) : 0.317\nStream size : 655 MiB (94%)\nWriting library : XviD 1.0.3 (UTC 2004-12-20)\n\nAudio\nID : 1\nFormat : MPEG Audio\nFormat version : Version 1\nFormat profile : Layer 3\nCodec ID : 55\nCodec ID/Hint : MP3\nDuration : 1h 1mn\nBit rate mode : Variable\nBit rate : 90.5 Kbps\nChannel(s) : 1 channel\nSampling rate : 48.0 KHz\nCompression mode : Lossy\nStream size : 39.6 MiB (6%)\nAlignment : Aligned on interleaves\nInterleave, duration : 24 ms (0.58 video frame)\nInterleave, preload duration : 487 ms\n","torrent":{"xt":"urn:btih:6912cc10b19f2c1cfa9fe5fdf24a404cf87fd421","amp;dn":"Hanare+Goze+Orin+AKA+Ballad+of+Orin+%28Masahiro+Shinoda%2C+1971%29","amp;tr":["udp%3A%2F%2Ftracker.openbittorrent.com%3A80","udp%3A%2F%2Fopen.demonii.com%3A1337","udp%3A%2F%2Ftracker.coppersurfer.tk%3A6969","udp%3A%2F%2Fexodus.desync.com%3A6969"],"infoHash":"6912cc10b19f2c1cfa9fe5fdf24a404cf87fd421","infoHashBuffer":{"type":"Buffer","data":[105,18,204,16,177,159,44,28,250,159,229,253,242,74,64,76,248,127,212,33]},"announce":[],"urlList":[]}}